# xmcd CD database file
#
# Track frame offsets:
#	150
#	16737
#	31672
#	51195
#	61847
#	88805
#	102400
#	114990
#	134405
#	148530
#	164965
#
# Disc length: 2493 seconds
#
# Revision: 4
# Processed by: cddbd v1.4PL0 Copyright (c) Steve Scherf et al.
# Submitted via: CDex 1.40Release
#
DISCID=9209bb0b
DTITLE=Paul Kelly - Live, May 1992 [CD1]
DYEAR=1992
DGENRE=Rock
TTITLE0=Foggy Highway
TTITLE1=To Her Door
TTITLE2=Wintercoat
TTITLE3=Taught by Experts
TTITLE4=From Little Things Big Things Grow
TTITLE5=I Can't Believe We Were Married
TTITLE6=Until Death Do Them Part
TTITLE7=Same Old Walk
TTITLE8=Don't Explain
TTITLE9=Stupid Song
TTITLE10=Brand New Ways
EXTD=YEAR: 1992 ID3G: 17
EXTT0=
EXTT1=
EXTT2=
EXTT3=
EXTT4=
EXTT5=
EXTT6=
EXTT7=
EXTT8=
EXTT9=
EXTT10=
PLAYORDER=
